<?xml version="1.0" encoding="UTF-8" standalone="no"?>
<!-- Generator: Adobe Illustrator 17.0.0, SVG Export Plug-In . SVG Version: 6.00 Build 0)  -->

<svg
   xmlns:dc="http://purl.org/dc/elements/1.1/"
   xmlns:cc="http://creativecommons.org/ns#"
   xmlns:rdf="http://www.w3.org/1999/02/22-rdf-syntax-ns#"
   xmlns:svg="http://www.w3.org/2000/svg"
   xmlns="http://www.w3.org/2000/svg"
   xmlns:sodipodi="http://sodipodi.sourceforge.net/DTD/sodipodi-0.dtd"
   xmlns:inkscape="http://www.inkscape.org/namespaces/inkscape"
   x="0px"
   y="0px"
   width="200"
   height="78"
   viewBox="0 0 374.42522 196.99474"
   xml:space="preserve"
   sodipodi:docname="index_background.svg"
   id="svg2"
   version="1.1"
   inkscape:version="0.91 r13725"><metadata
     id="metadata26"><rdf:RDF><cc:Work
         rdf:about=""><dc:format>image/svg+xml</dc:format><dc:type
           rdf:resource="http://purl.org/dc/dcmitype/StillImage" /><dc:title></dc:title></cc:Work></rdf:RDF></metadata><sodipodi:namedview
     pagecolor="#ffffff"
     bordercolor="#666666"
     borderopacity="1"
     objecttolerance="10"
     gridtolerance="10"
     guidetolerance="10"
     inkscape:pageopacity="0"
     inkscape:pageshadow="2"
     inkscape:window-width="1536"
     inkscape:window-height="803"
     id="namedview24"
     showgrid="false"
     inkscape:zoom="1"
     inkscape:cx="71.592237"
     inkscape:cy="92.97306"
     inkscape:window-x="-8"
     inkscape:window-y="-8"
     inkscape:window-maximized="1"
     inkscape:current-layer="svg2"
     fit-margin-top="0"
     fit-margin-left="0"
     fit-margin-right="0"
     fit-margin-bottom="0" /><defs
     id="defs22"><linearGradient
       id="SVGID_1_"
       gradientUnits="userSpaceOnUse"
       x1="193.52119"
       y1="348.50931"
       x2="193.52119"
       y2="26.2409"><stop
         offset="0"
         style="stop-color:#000000;stop-opacity:0"
         id="stop14" /><stop
         offset="0.34"
         style="stop-color:#000000"
         id="stop16" /></linearGradient><linearGradient
       y2="26.2409"
       x2="193.52119"
       y1="348.50931"
       x1="193.52119"
       gradientUnits="userSpaceOnUse"
       id="linearGradient16"><stop
         id="stop18"
         style="stop-color:#000000;stop-opacity:0"
         offset="0" /><stop
         id="stop20"
         style="stop-color:#000000"
         offset="0.34" /></linearGradient></defs><path
     inkscape:connector-curvature="0"
     id="path10"
     d="m 362.66256,166.35573 c 0.002,-0.005 -0.055,-0.024 0,0 0.001,-0.002 0,0 0,0 z" /><path
     inkscape:connector-curvature="0"
     style="opacity:0.5;fill:#ffffff;fill-opacity:1;stroke:#ffffff;stroke-width:7.57672119;stroke-linejoin:miter;stroke-miterlimit:4;stroke-dasharray:none;stroke-opacity:1"
     id="path22"
     d="m 527.49169,80.592143 c -16.83126,-5.83576 -36.35802,-11.49473 -54.2549,-11.61917 -13.91517,-0.0969 -27.87769,0.22698 -41.77234,-0.68802 -11.54494,-0.76014 -18.80551,-8.189 -26.94219,-15.97212 -0.85348,-0.8167 -1.69493,-1.64543 -2.53639,-2.47416 -2.21466,2.06192 -4.42932,4.12384 -6.64327,6.18647 -1.49482,1.39159 -2.98964,2.78459 -4.48446,4.17617 -1.30744,1.21693 0.56074,5.63493 0.79903,7.8404 1.13067,10.47013 -6.02596,19.407255 -15.34775,23.292812 -10.29901,4.29285 -19.97718,-3.125417 -25.3618,-11.407762 -4.97661,-7.65514 -2.17082,-16.64811 3.84313,-22.6267 0.16758,-0.16617 0.41295,0.0834 0.25738,0.25739 -10.40223,11.61846 -3.26188,28.041725 11.18007,32.222145 7.27471,2.105767 14.08132,-2.6856 18.68176,-7.749905 5.49493,-6.04929 4.54175,-14.18102 2.77822,-21.52221 -0.10606,-0.44264 0.003,-0.94327 0.34224,-1.26288 3.21027,-3.02642 6.42052,-6.05142 9.63079,-9.07783 0.79478,-0.74954 1.59098,-1.49907 2.38577,-2.2486 -1.08682,-1.09814 -2.16869,-2.20123 -3.23572,-3.31775 -7.78311,-8.13668 -15.21268,-15.39796 -15.97211,-26.94218 -0.91429,-13.8953708 -0.59114,-27.857191 -0.68802,-41.772321 -0.12444,-17.896882 -5.78271,-37.42434 -11.61917,-54.254899 l 2.7662,-2.67852 c 5.15198,14.811059 8.55033,30.098708 10.81166,45.60132 1.40431,9.62797 1.15965,18.992879 1.16602,28.704969 0.004,6.39933001 0.0785,12.7979402 0.28143,19.193721 0.16334,5.14138 -0.15628,10.48004 2.59154,14.97724 4.3084,7.05339 10.56699,13.28795 16.40274,19.14208 5.85414,5.83576 12.0887,12.09436 19.14209,16.40276 4.49863,2.74781 9.83658,2.4289 14.97724,2.59154 6.39578,0.20294 12.7951,0.27789 19.1937,0.28143 9.71071,0.006 19.07634,-0.23901 28.70501,1.16601 15.50262,2.26133 30.79027,5.65968 45.60133,10.81166 z"
     sodipodi:nodetypes="ccccccccscccscccccccscccscccsccccc" /></svg>