<?xml version="1.0" encoding="UTF-8" standalone="no"?>
<!-- Created with Inkscape (http://www.inkscape.org/) -->

<svg
   xmlns:dc="http://purl.org/dc/elements/1.1/"
   xmlns:cc="http://creativecommons.org/ns#"
   xmlns:rdf="http://www.w3.org/1999/02/22-rdf-syntax-ns#"
   xmlns:svg="http://www.w3.org/2000/svg"
   xmlns="http://www.w3.org/2000/svg"
   xmlns:sodipodi="http://sodipodi.sourceforge.net/DTD/sodipodi-0.dtd"
   xmlns:inkscape="http://www.inkscape.org/namespaces/inkscape"
   width="208"
   height="50"
   id="svg2"
   version="1.1"
   inkscape:version="0.91 r13725"
   sodipodi:docname="lang_background.svg">
  <defs
     id="defs4">
    <clipPath
       id="t-5">
      <path
         id="path5-7"
         d="m 30,15 30,0 0,15 z m 0,0 0,15 -30,0 z M 30,15 0,15 0,0 Z m 0,0 0,-15 30,0 z"
         inkscape:connector-curvature="0" />
    </clipPath>
    <clipPath
       id="t-5-4-0">
      <path
         id="path5-7-0-5"
         d="m 30,15 30,0 0,15 z m 0,0 0,15 -30,0 z M 30,15 0,15 0,0 Z m 0,0 0,-15 30,0 z"
         inkscape:connector-curvature="0" />
    </clipPath>
    <clipPath
       id="t-5-1">
      <path
         id="path5-7-5"
         d="m 30,15 30,0 0,15 z m 0,0 0,15 -30,0 z M 30,15 0,15 0,0 Z m 0,0 0,-15 30,0 z"
         inkscape:connector-curvature="0" />
    </clipPath>
    <clipPath
       clipPathUnits="userSpaceOnUse"
       id="clipPath9153">
      <path
         style="fill:#6d6d6d;fill-opacity:1;stroke:none"
         d="m 37.53125,1012.3622 c -8.593603,0 -13.704265,3.0956 -16.46875,9.2813 L 0,1052.3622 c 53.333333,0 106.66667,0 160,0 l -21.0625,-30.7187 c -2.76449,-6.1857 -7.87515,-9.2813 -16.46875,-9.2813 -28.3125,0 -56.625,0 -84.9375,0 z"
         id="path9155"
         inkscape:connector-curvature="0"
         sodipodi:nodetypes="ccccccc" />
    </clipPath>
    <clipPath
       id="t-5-4">
      <path
         inkscape:connector-curvature="0"
         id="path13" />
    </clipPath>
  </defs>
  <sodipodi:namedview
     id="base"
     pagecolor="#ffffff"
     bordercolor="#666666"
     borderopacity="1.0"
     inkscape:pageopacity="0.0"
     inkscape:pageshadow="2"
     inkscape:zoom="3.959798"
     inkscape:cx="91.883164"
     inkscape:cy="19.413785"
     inkscape:document-units="px"
     inkscape:current-layer="g4151"
     showgrid="false"
     inkscape:window-width="1536"
     inkscape:window-height="803"
     inkscape:window-x="-8"
     inkscape:window-y="-8"
     inkscape:window-maximized="1"
     showguides="true"
     inkscape:guide-bbox="true"
     fit-margin-top="0"
     fit-margin-left="0"
     fit-margin-right="0"
     fit-margin-bottom="0" />
  <metadata
     id="metadata7">
    <rdf:RDF>
      <cc:Work
         rdf:about="">
        <dc:format>image/svg+xml</dc:format>
        <dc:type
           rdf:resource="http://purl.org/dc/dcmitype/StillImage" />
        <dc:title />
      </cc:Work>
    </rdf:RDF>
  </metadata>
  <path
     inkscape:connector-curvature="0"
     d="M 208,50 192.0625,12.375 C 187.47041,4.4213 183.51325,0 170.8125,0 L 37.1875,0 C 24.486754,0 20.529592,4.4213 15.9375,12.375 L 0,50 Z"
     style="display:inline;fill:#000000;fill-opacity:1;stroke:none"
     id="path4144"
     sodipodi:nodetypes="ccssccc" />
  <path
     style="display:inline;fill:none;stroke:#ffffff;stroke-width:0.5;stroke-linecap:butt;stroke-linejoin:miter;stroke-miterlimit:4;stroke-dasharray:none;stroke-opacity:1"
     d="m 105,21.214286 0,22.214283"
     inkscape:connector-curvature="0"
     id="path20" />
  <path
     id="path4158"
     style="display:inline;fill:none;stroke:#ffffff;stroke-width:0.5;stroke-linecap:butt;stroke-linejoin:miter;stroke-miterlimit:4;stroke-dasharray:none;stroke-opacity:1"
     d="m 61,21.214286 0,22.214283"
     inkscape:connector-curvature="0" />
  <path
     inkscape:connector-curvature="0"
     d="m 149,21.214286 0,22.214283"
     style="display:inline;fill:none;stroke:#ffffff;stroke-width:0.5;stroke-linecap:butt;stroke-linejoin:miter;stroke-miterlimit:4;stroke-dasharray:none;stroke-opacity:1"
     id="path4160" />
  <g
     id="g4151"
     transform="translate(0,-60)" />
</svg>
