<?xml version="1.0" encoding="UTF-8" standalone="no"?>
<!-- Generator: Adobe Illustrator 17.0.0, SVG Export Plug-In . SVG Version: 6.00 Build 0)  -->

<svg
   xmlns:i="&amp;#38;#38;#38;#38;#38;ns_ai;"
   xmlns:dc="http://purl.org/dc/elements/1.1/"
   xmlns:cc="http://creativecommons.org/ns#"
   xmlns:rdf="http://www.w3.org/1999/02/22-rdf-syntax-ns#"
   xmlns:svg="http://www.w3.org/2000/svg"
   xmlns="http://www.w3.org/2000/svg"
   xmlns:sodipodi="http://sodipodi.sourceforge.net/DTD/sodipodi-0.dtd"
   xmlns:inkscape="http://www.inkscape.org/namespaces/inkscape"
   version="1.1"
   id="Warstwa_1"
   x="0px"
   y="0px"
   width="200"
   height="200"
   viewBox="0 0 200.00001 200"
   xml:space="preserve"
   inkscape:version="0.91 r13725"
   sodipodi:docname="logo.svg"><metadata
     id="metadata24"><rdf:RDF><cc:Work
         rdf:about=""><dc:format>image/svg+xml</dc:format><dc:type
           rdf:resource="http://purl.org/dc/dcmitype/StillImage" /><dc:title /></cc:Work></rdf:RDF></metadata><defs
     id="defs22"><linearGradient
       id="SVGID_1_"
       gradientUnits="userSpaceOnUse"
       x1="193.52119"
       y1="348.50931"
       x2="193.52119"
       y2="26.2409"><stop
         offset="0"
         style="stop-color:#000000;stop-opacity:0"
         id="stop14" /><stop
         offset="0.34"
         style="stop-color:#000000"
         id="stop16" /></linearGradient></defs><sodipodi:namedview
     pagecolor="#ffffff"
     bordercolor="#666666"
     borderopacity="1"
     objecttolerance="10"
     gridtolerance="10"
     guidetolerance="10"
     inkscape:pageopacity="0"
     inkscape:pageshadow="2"
     inkscape:window-width="1536"
     inkscape:window-height="803"
     id="namedview20"
     showgrid="false"
     inkscape:zoom="1.217232"
     inkscape:cx="34.548549"
     inkscape:cy="52.397595"
     inkscape:window-x="-8"
     inkscape:window-y="-8"
     inkscape:window-maximized="1"
     inkscape:current-layer="Warstwa_1"
     fit-margin-top="0"
     fit-margin-left="0"
     fit-margin-right="0"
     fit-margin-bottom="0" /><circle
     style="opacity:1;fill:#000000;fill-opacity:0.09019608;stroke:#000100;stroke-width:0;stroke-linejoin:miter;stroke-miterlimit:4;stroke-dasharray:none;stroke-opacity:1"
     id="path4139"
     cx="100.00001"
     cy="100"
     r="100" /><g
     id="g4139"
     transform="matrix(0.54083642,0,0,0.54083642,-3.4946256,-31.185789)"><path
       inkscape:connector-curvature="0"
       id="path7"
       d="m 127.638,317.871 c 0.002,-0.005 -0.055,-0.024 0,0 10e-4,-0.002 0,0 0,0 z" /><path
       style="fill:#ffffff;fill-opacity:1"
       inkscape:connector-curvature="0"
       id="path9"
       d="m 155.949,236.068 c 0.76,-0.799 1.183,-1.109 1.311,-2.261 0.156,-1.406 0.299,-2.815 0.482,-4.218 0.39,-2.998 0.953,-5.97 1.583,-8.926 0.572,-2.684 1.188,-5.362 1.982,-7.991 0.816,-2.7 2.004,-5.138 3.091,-7.718 2.844,-6.747 8.257,-13.542 14.651,-17.161 3.889,-2.201 9.252,-2.859 12.522,0.822 2.96,3.332 2.395,8.666 1.073,12.561 -1.6,4.711 -4.977,8.316 -8.045,12.122 -3.525,4.374 -7.42,8.457 -11.324,12.49 -1.572,1.624 -3.159,3.235 -4.757,4.835 -0.302,6.156 -0.049,12.355 0.059,18.515 0.115,6.591 0.506,13.18 1.271,19.729 6.96,-7.512 12.468,-16.24 16.776,-25.51 2.196,-4.725 4.319,-9.647 5.78,-14.653 0.556,-1.903 1.129,-4.068 2.993,-5.102 1.535,-0.852 3.512,-0.68 4.886,0.409 1.546,1.225 2.007,3.435 1.239,5.231 -1.13,2.64 -2.659,5.251 -4.035,7.777 -2.651,4.868 -5.621,9.551 -8.477,14.299 -2.926,4.864 -5.85,9.632 -9.317,14.14 -1.626,2.114 -3.297,4.2 -5.058,6.205 -0.871,0.992 -1.768,1.962 -2.703,2.894 -1.164,1.159 -0.962,1.688 -0.728,3.321 0.557,3.897 1.629,7.695 2.658,11.487 2.561,4.509 -0.063,10.744 -5.768,9.826 -2.062,-0.332 -4.267,-1.607 -4.818,-3.755 -0.933,-3.633 -2.204,-7.118 -2.912,-10.824 -6.368,4.345 -15.047,8.883 -23.054,7.586 -3.513,-0.569 -6.753,-2.572 -8.608,-5.642 -1.918,-3.175 -1.609,-7.096 -0.881,-10.594 1.383,-6.644 5.182,-12.431 9.239,-17.745 4.983,-6.526 10.306,-12.701 15.76,-18.835 1.002,-1.146 2.081,-2.212 3.129,-3.314 z m 29.631,-35.392 c 0.966,-1.82 3.606,-6.583 0.958,-8.175 -3.385,-2.035 -6.878,1.821 -8.658,4.215 -5.199,6.993 -7.673,15.755 -8.538,24.336 0.014,-0.134 0.029,-0.268 0.044,-0.402 -0.055,0.493 -0.109,0.986 -0.16,1.48 0.22,-1.714 1.845,-3.296 2.958,-4.492 1.581,-1.698 3.307,-3.249 4.933,-4.901 3.368,-3.422 6.226,-7.847 8.463,-12.061 z m -28.823,52.674 c -0.419,-3.282 -0.165,-6.712 -0.165,-10.013 -5.211,5.245 -10.002,11.158 -14.412,17.089 -3.66,4.922 -7.204,10.372 -8.883,16.338 -0.583,2.072 -1.002,4.453 -0.256,6.54 0.916,2.564 3.586,3.531 6.121,3.614 7.307,0.238 14.417,-4.064 20.103,-8.201 -1.422,-8.396 -2.014,-16.877 -2.508,-25.367 -0.106,-0.836 0.107,1.838 0,0 -0.419,-3.282 0.107,1.838 0,0 z" /><path
       style="fill:#ffffff;fill-opacity:1"
       inkscape:connector-curvature="0"
       id="path11"
       d="m 319.374,178.391 c 0.178,-3.187 -0.841,-6.95 -4.324,-7.841 -3.98,-1.018 -6.61,1.948 -8.509,5 -5.255,8.44 -9.975,17.095 -14.67,25.856 -10.552,19.691 -20.89,39.492 -31.406,59.201 3.638,-23.353 7.041,-46.765 9.898,-70.223 0.489,-4.015 2.418,-10.249 -1.671,-12.982 -3.602,-2.407 -7.534,-0.488 -9.279,3.117 -2.322,4.798 -3.963,10.001 -6.062,14.909 -2.314,5.411 -4.715,10.786 -7.166,16.135 -9.444,20.616 -19.676,41.188 -32.684,59.826 -3.139,4.498 -6.504,8.847 -10.202,12.902 -3.815,4.183 -7.451,8.531 -11.571,12.425 -7.265,6.866 -15.413,12.999 -24.57,17.105 -7.672,3.44 -16.132,5.448 -24.57,4.712 -8.567,-0.747 -16.505,-4.448 -22.883,-10.168 -7.584,-6.802 -12.849,-16.034 -17.385,-25.047 -3.709,-7.372 -6.491,-15.211 -8.978,-23.067 -2.12,-6.695 -3.992,-13.469 -5.668,-20.288 -0.434,-1.765 -0.855,-3.533 -1.252,-5.306 -0.166,-0.741 -0.39,-1.507 -0.36,-2.269 0.063,-1.553 2.488,-2.507 3.619,-3.128 10.071,-5.532 19.996,-11.411 29.81,-17.386 9.575,-5.83 18.767,-12.416 28.513,-17.949 4.017,-2.281 9.933,-5.943 6.249,-11.274 -1.99,-2.88 -5.428,-3.146 -8.325,-1.54 -3.589,1.99 -6.997,4.413 -10.46,6.615 -14.698,9.347 -29.543,18.44 -44.595,27.207 1.866,-5.597 3.743,-11.191 5.591,-16.794 0.873,-2.648 1.739,-5.298 2.599,-7.95 0.753,-2.321 2.102,-4.726 1.771,-7.246 -0.484,-3.685 -5.067,-6.498 -8.498,-4.711 -2.787,1.451 -3.749,5.156 -4.556,7.931 -3.059,10.506 -6.876,20.834 -10.353,31.209 -3.762,11.225 -7.621,22.416 -11.568,33.578 -3.408,9.64 -6.915,19.245 -10.387,28.862 -1.128,3.126 -2.955,6.467 -3.125,9.836 -0.191,3.767 3.426,6.757 7.137,5.914 4.131,-0.939 4.939,-5.614 6.191,-9.01 1.75,-4.748 3.481,-9.503 5.184,-14.269 3.479,-9.735 6.844,-19.51 10.304,-29.252 4.442,16.479 10.015,32.853 18.315,47.824 4.166,7.514 9.056,14.681 14.964,20.939 5.742,6.082 12.735,11.91 20.721,14.71 17.776,6.231 38.294,-1.61 53.148,-11.569 8.923,-5.982 16.324,-13.541 23.231,-21.706 7.283,-8.61 13.859,-17.716 19.796,-27.304 12.515,-20.212 22.598,-41.823 32.023,-63.609 -1.598,11.86 -3.245,23.713 -4.993,35.551 -1.706,11.56 -3.216,23.223 -5.387,34.706 -0.75,3.969 -2.285,8.99 2.15,11.38 3.852,2.076 7.215,-0.059 8.896,-3.636 4.838,-10.288 10.11,-20.351 15.42,-30.407 8.918,-16.888 17.812,-33.798 27.067,-50.505 -1.148,23.931 -0.591,47.912 -0.537,71.86 0.013,5.963 0.03,11.927 0.014,17.89 -0.008,2.862 -0.023,5.725 -0.05,8.587 -0.022,2.35 -0.582,5.132 0.557,7.308 1.555,2.97 5.561,3.881 8.399,2.256 3.596,-2.059 2.855,-6.649 2.899,-10.148 0.297,-23.697 0.531,-47.394 0.819,-71.091 0.128,-10.5 0.259,-21 0.42,-31.5 0.082,-5.385 0.037,-10.798 0.339,-16.176 0.198,-3.541 -0.393,6.997 0,0 z" /></g><i:pgf
     id="adobe_illustrator_pgf" /></svg>